# xmcd CD database file
#
# Track frame offsets:
#	150
#	24462
#	57167
#	89330
#	101442
#	115620
#	134992
#	163512
#	181787
#
# Disc length: 2834 seconds
#
# Revision: 0
# Processed by: cddbd v1.4PL0 Copyright (c) Steve Scherf et al.
# Submitted via: CD2WAV32(EN) R3.19
#
DISCID=6e0b1009
DTITLE=CHOPIN - Vladimir Ashkenazy
DYEAR=1900
DGENRE=
TTITLE0=No.8 in D Minor, OP.71.No.1
TTITLE1=No.9 in Bb major, Op.71 No.2
TTITLE2=No.10 in F minor , op.71 no.3
TTITLE3=No.11 in G minor
TTITLE4=No.12 in Bb major
TTITLE5=No.13 in Ab major, op.posth
TTITLE6=No.14 in G# minor op.posth
TTITLE7=No.15 in Bb minor Adieu
TTITLE8=No.16 in Gb major op.posth
EXTD=
EXTT0=
EXTT1=
EXTT2=
EXTT3=
EXTT4=
EXTT5=
EXTT6=
EXTT7=
EXTT8=
PLAYORDER=
